<svg width="32" height="32" viewBox="0 0 32 32" fill="none" xmlns="http://www.w3.org/2000/svg">
  <defs>
    <linearGradient id="brainGradient" x1="0%" y1="0%" x2="100%" y2="100%">
      <stop offset="0%" style="stop-color:#FF6B6B;stop-opacity:1" />
      <stop offset="50%" style="stop-color:#4ECDC4;stop-opacity:1" />
      <stop offset="100%" style="stop-color:#45B7D1;stop-opacity:1" />
    </linearGradient>
  </defs>
  
  <!-- Background circle -->
  <circle cx="16" cy="16" r="15" fill="url(#brainGradient)" stroke="#2D3748" stroke-width="1"/>
  
  <!-- Brain icon -->
  <path d="M16 8C18.5 8 20.5 9.5 21 12C21.5 14.5 20 16 18 16.5C19 17 20 18 20 19.5C20 21.5 18.5 23 16.5 23C14.5 23 13 21.5 13 19.5C13 18 14 17 15 16.5C13 16 11.5 14.5 12 12C12.5 9.5 14.5 8 17 8H16Z" fill="white"/>
  
  <!-- Brain details -->
  <path d="M14 12C14.5 12 15 12.5 15 13C15 13.5 14.5 14 14 14C13.5 14 13 13.5 13 13C13 12.5 13.5 12 14 12Z" fill="#2D3748"/>
  <path d="M18 12C18.5 12 19 12.5 19 13C19 13.5 18.5 14 18 14C17.5 14 17 13.5 17 13C17 12.5 17.5 12 18 12Z" fill="#2D3748"/>
  <path d="M16 15C16.5 15 17 15.5 17 16C17 16.5 16.5 17 16 17C15.5 17 15 16.5 15 16C15 15.5 15.5 15 16 15Z" fill="#2D3748"/>
</svg>
